<svg xmlns="http://www.w3.org/2000/svg" viewBox="0 0 256 256" width="256" height="256">
  <defs>
    <linearGradient id="bg" x1="0" y1="0" x2="0" y2="1">
      <stop offset="0%" stop-color="#1e1e3a"/>
      <stop offset="100%" stop-color="#12122a"/>
    </linearGradient>
    <linearGradient id="gLeft" x1="0" y1="0" x2="0" y2="1">
      <stop offset="0%" stop-color="#c77dff"/>
      <stop offset="100%" stop-color="#7b2fff"/>
    </linearGradient>
    <linearGradient id="gRight" x1="0" y1="0" x2="0" y2="1">
      <stop offset="0%" stop-color="#ff6eb4"/>
      <stop offset="100%" stop-color="#c9184a"/>
    </linearGradient>
  </defs>

  <!-- Background -->
  <rect width="256" height="256" rx="48" ry="48" fill="url(#bg)"/>
  <!-- Subtle border -->
  <rect width="256" height="256" rx="48" ry="48" fill="none"
        stroke="#c77dff" stroke-width="1.5" stroke-opacity="0.2"/>

  <!-- Left waveform bars (input) -->
  <rect x="22" y="106" width="20" height="44" rx="5" fill="url(#gLeft)"/>
  <rect x="50" y="88"  width="20" height="80" rx="5" fill="url(#gLeft)"/>
  <rect x="78" y="99"  width="20" height="58" rx="5" fill="url(#gLeft)"/>

  <!-- Conversion arrow -->
  <path d="M108 128 L145 128" stroke="#f72585" stroke-width="7" stroke-linecap="round"/>
  <polygon points="140,118 158,128 140,138" fill="#f72585"/>

  <!-- Right waveform bars (output) -->
  <rect x="164" y="99"  width="20" height="58" rx="5" fill="url(#gRight)"/>
  <rect x="192" y="85"  width="20" height="86" rx="5" fill="url(#gRight)"/>
  <rect x="220" y="108" width="20" height="40" rx="5" fill="url(#gRight)"/>
</svg>
